# xmcd CD database file
# Copyright (C) 1997 Ti Kan
# 
# Track frame offsets:
#     182
#     10622
#     20462
#     31032
#     40760
#     51407
#     61632
#     73387
#     82525
#     94047
#     105482
#     116767
# 
# Disc length: 1699 seconds
# 
# Revision: 1
# Processed by: cddbd v1.4b41PL1 Copyright (c) Steve Scherf et al.
# Submitted via: DiscPlay 4.0.3
# 
DISCID=8606a10c
DTITLE=Chet Atkins - Teensville
DYEAR=1900
DGENRE=
TTITLE0=White Silver Sands
TTITLE1=Boo Boo Stick Beat
TTITLE2=Oh, Lonsome Me
TTITLE3=One Mint Julep
TTITLE4=Take A Message To Mary
TTITLE5=Teensville
TTITLE6=Night Train
TTITLE7=Come Softly To Me
TTITLE8=Sleep Walk
TTITLE9=Django's Castle
TTITLE10=Till There Was You
TTITLE11=Hot Toddy
EXTD=
EXTT0=
EXTT1=
EXTT2=
EXTT3=
EXTT4=
EXTT5=
EXTT6=
EXTT7=
EXTT8=
EXTT9=
EXTT10=
EXTT11=
PLAYORDER=
